<svg width="600" height="601" viewBox="0 0 600 601" fill="none" xmlns="http://www.w3.org/2000/svg">
<circle cx="300" cy="300.5" r="300" fill="url(#paint0_linear_6_940)"/>
<path d="M211.625 375.531C203.917 387.094 196.312 396.521 188.812 403.812C181.417 411 174.229 414.594 167.25 414.594C163.708 414.594 161.052 413.76 159.281 412.094C156.26 409.385 154.75 406.833 154.75 404.438C154.75 402.042 155.531 400.271 157.094 399.125C172.823 387.771 190.271 354.438 209.438 299.125L218.656 272.875C229.281 242.875 238.292 224.281 245.688 217.094C248.292 215.115 251 214.125 253.812 214.125C256.625 214.125 259.073 214.594 261.156 215.531C263.24 216.365 265.062 217.458 266.625 218.812C270.167 221.938 271.938 225.583 271.938 229.75C271.938 231.312 271.208 233.552 269.75 236.469C268.292 239.385 266.625 243.188 264.75 247.875L244.906 303.031C270.219 298.448 291.104 287.979 307.562 271.625C322.979 256.312 330.688 240.583 330.688 224.438C330.688 209.125 323.812 199.073 310.062 194.281C305.375 192.615 299.906 191.781 293.656 191.781C287.51 191.781 281.208 192.562 274.75 194.125C268.292 195.688 261.938 197.719 255.688 200.219C243.083 205.323 232.771 211.312 224.75 218.188C222.667 220.167 220.375 221.156 217.875 221.156C215.375 221.156 213.031 220.635 210.844 219.594C208.656 218.552 206.729 217.198 205.062 215.531C201.208 211.885 199.281 208.188 199.281 204.438C199.281 200.583 200.635 197.146 203.344 194.125C206.052 191.104 209.646 188.396 214.125 186C218.604 183.5 223.76 181.312 229.594 179.438C235.427 177.458 241.417 175.792 247.562 174.438C260.062 171.833 272.458 170.531 284.75 170.531C297.146 170.531 308.448 172.094 318.656 175.219C328.969 178.24 337.458 182.354 344.125 187.562C357.562 197.979 364.281 211.208 364.281 227.25V229.75C363.344 249.438 355.896 266.781 341.938 281.781C329.75 294.802 314.021 305.062 294.75 312.562C277.354 319.438 260.896 322.875 245.375 322.875H241.312C239.958 322.875 238.656 322.771 237.406 322.562C228.031 346.208 219.438 363.865 211.625 375.531ZM430.219 215.219C427.927 217.615 425.323 219.594 422.406 221.156C419.49 222.615 416.417 223.552 413.188 223.969C409.958 224.281 406.885 223.76 403.969 222.406C401.156 221.052 398.708 219.125 396.625 216.625C392.146 211.417 389.906 206.156 389.906 200.844C389.906 195.531 390.74 191.573 392.406 188.969C394.177 186.26 396.365 184.073 398.969 182.406C403.969 179.177 408.656 177.562 413.031 177.562C417.51 177.562 420.948 177.875 423.344 178.5C425.844 179.125 428.188 180.167 430.375 181.625C435.375 185.062 437.875 189.281 437.875 194.281C437.875 199.177 437.146 203.292 435.688 206.625C434.333 209.854 432.51 212.719 430.219 215.219ZM399.438 251.781C413.708 251.781 420.844 255.792 420.844 263.812C420.844 285.583 415.115 315.427 403.656 353.344C390.74 396.052 374.333 431 354.438 458.188C338.812 479.438 322.458 493.188 305.375 499.438C303.708 500.167 301.573 500.531 298.969 500.531C296.26 500.531 293.76 499.698 291.469 498.031C289.073 496.469 287.875 494.646 287.875 492.562C287.875 488.604 289.281 486.208 292.094 485.375C307.51 480.375 323.604 461.625 340.375 429.125C355.167 400.375 366.729 368.969 375.062 334.906C380.479 313.24 383.188 295.479 383.188 281.625C383.188 276.833 381.625 273.292 378.5 271L375.375 268.812C374.333 268.083 373.812 266.833 373.812 265.062C373.812 263.188 374.542 261.417 376 259.75C377.562 258.083 379.542 256.625 381.938 255.375C387.042 252.979 392.875 251.781 399.438 251.781Z" fill="white"/>
<defs>
<linearGradient id="paint0_linear_6_940" x1="300" y1="0.5" x2="300" y2="600.5" gradientUnits="userSpaceOnUse">
<stop stop-color="#022BFF"/>
<stop offset="0.191677" stop-color="#3C38D1"/>
<stop offset="0.374532" stop-color="#9217DF"/>
<stop offset="0.560434" stop-color="#C81EA6"/>
<stop offset="0.737193" stop-color="#EE2063"/>
<stop offset="0.999284" stop-color="#F70000"/>
<stop offset="0.9999" stop-color="#FF0000" stop-opacity="0"/>
</linearGradient>
</defs>
</svg>
