<svg width="720" height="720" viewBox="0 0 720 720" fill="none" xmlns="http://www.w3.org/2000/svg">
<circle cx="360" cy="360" r="350" fill="#FF0303" stroke="white" stroke-width="20"/>
<path d="M289.5 652.187L60 320.687C66.7189 277.955 73.8302 255.513 92.5 218.187C129.285 208.734 151.43 207.252 193.5 210.687C360.635 239.183 462.067 406.016 370 580.187L353.5 605.187L390 657.687C351.737 660.288 329.865 659.044 289.5 652.187Z" fill="white" stroke="white"/>
<path d="M304 369.687C236.277 266.702 138.646 291.389 134.501 290.189C130.357 288.988 305.001 535.688 305.001 535.688C334.524 467.498 332.234 425.491 304 369.687Z" fill="#FF0303" stroke="white"/>
<path d="M233 141.958L282 202.958L373 131.458C419.728 142.533 443.607 152.44 482 174.458C521.341 205.368 540.279 225.953 568.5 268.458C596.108 320.829 605.566 351.63 612.5 408.958C613.438 478.701 598.913 521.986 570 572.958C610.261 529.231 635.032 491.632 652.5 428.458C663.027 368.829 662.645 335.138 648.5 274.458C626.327 215.477 609.377 186.797 570 143.958C524.665 105.199 497.934 89.0054 447.5 71.9577C403.864 60.5736 379.449 57.0808 336 59.9577L233 141.958Z" fill="white" stroke="white"/>
</svg>
