<svg width="29" height="29" viewBox="0 0 29 29" fill="none" xmlns="http://www.w3.org/2000/svg">
<g clip-path="url(#clip0_335_13)">
<path d="M10.5266 22.2088C4.68624 23.9353 4.70508 19.2686 2.37412 18.6759L10.5266 22.2088ZM18.6791 25.7418L18.6973 21.2268C18.7433 20.6707 18.6704 20.1111 18.4834 19.5854C18.2965 19.0596 17.9997 18.5796 17.6129 18.1774C21.2779 17.7839 25.1334 16.4111 25.1592 10.0411C25.1654 8.41228 24.5452 6.84336 23.4268 5.6591C23.9644 4.23619 23.9332 2.66086 23.3396 1.26038C23.3396 1.26038 21.9646 0.846494 18.771 2.96862C16.0999 2.23312 13.2813 2.22175 10.6044 2.93565C7.42803 0.787813 6.04973 1.19059 6.04973 1.19059C5.44486 2.58623 5.4009 4.16125 5.92698 5.58846C4.79067 6.77237 4.15709 8.35038 4.15919 9.99136C4.13366 16.3146 7.97803 17.7185 11.6395 18.1883C11.2541 18.5834 10.9561 19.0552 10.7651 19.573C10.574 20.0908 10.4942 20.6431 10.5307 21.1938L10.5125 25.7088" fill="white"/>
<path d="M18.6791 25.7418L18.6973 21.2268C18.7433 20.6707 18.6704 20.1111 18.4834 19.5854C18.2965 19.0596 17.9997 18.5796 17.6129 18.1774C21.2779 17.7839 25.1334 16.4111 25.1592 10.0411C25.1654 8.41228 24.5452 6.84336 23.4268 5.6591C23.9644 4.23619 23.9332 2.66086 23.3396 1.26038C23.3396 1.26038 21.9646 0.846494 18.771 2.96862C16.0999 2.23312 13.2813 2.22175 10.6044 2.93565C7.42803 0.787813 6.04973 1.19059 6.04973 1.19059C5.44486 2.58623 5.4009 4.16125 5.92698 5.58846C4.79067 6.77237 4.15709 8.35038 4.15919 9.99136C4.13366 16.3146 7.97803 17.7185 11.6395 18.1883C11.2541 18.5834 10.9561 19.0552 10.7651 19.573C10.5741 20.0908 10.4942 20.6431 10.5307 21.1938L10.5125 25.7088M10.5266 22.2088C4.68624 23.9353 4.70508 19.2686 2.37412 18.6759L10.5266 22.2088Z" stroke="white" stroke-width="2" stroke-linecap="round" stroke-linejoin="round"/>
</g>
<defs>
<clipPath id="clip0_335_13">
<rect width="28" height="28" fill="white" transform="translate(0.11615) rotate(0.231289)"/>
</clipPath>
</defs>
</svg>
