<svg width="34" height="35" viewBox="0 0 34 35" fill="none" xmlns="http://www.w3.org/2000/svg">
<g filter="url(#filter0_d_7_40)">
<path d="M13.3468 22.5103C6.70452 24.3833 6.70452 19.3885 4.04762 18.7641L13.3468 22.5103ZM22.6459 26.2564V21.4239C22.6957 20.8285 22.6102 20.2299 22.3949 19.6679C22.1796 19.106 21.8395 18.5936 21.3972 18.1648C25.5685 17.7277 29.9524 16.2417 29.9524 9.42377C29.952 7.68035 29.2386 6.0038 27.9597 4.7411C28.5653 3.21581 28.5225 1.52985 27.8402 0.0334569C27.8402 0.0334569 26.2726 -0.403592 22.6459 1.88155C19.6011 1.10588 16.3916 1.10588 13.3468 1.88155C9.7201 -0.403592 8.15253 0.0334569 8.15253 0.0334569C7.47021 1.52985 7.42739 3.21581 8.03297 4.7411C6.74454 6.01316 6.03036 7.70487 6.0403 9.46123C6.0403 16.2293 10.4242 17.7152 14.5955 18.2022C14.1584 18.6267 13.8214 19.133 13.6062 19.6881C13.3911 20.2432 13.3027 20.8346 13.3468 21.4239V26.2564" fill="white"/>
</g>
<defs>
<filter id="filter0_d_7_40" x="-3" y="0" width="40" height="40" filterUnits="userSpaceOnUse" color-interpolation-filters="sRGB">
<feFlood flood-opacity="0" result="BackgroundImageFix"/>
<feColorMatrix in="SourceAlpha" type="matrix" values="0 0 0 0 0 0 0 0 0 0 0 0 0 0 0 0 0 0 127 0" result="hardAlpha"/>
<feOffset dy="4"/>
<feGaussianBlur stdDeviation="2"/>
<feComposite in2="hardAlpha" operator="out"/>
<feColorMatrix type="matrix" values="0 0 0 0 0 0 0 0 0 0 0 0 0 0 0 0 0 0 0.25 0"/>
<feBlend mode="normal" in2="BackgroundImageFix" result="effect1_dropShadow_7_40"/>
<feBlend mode="normal" in="SourceGraphic" in2="effect1_dropShadow_7_40" result="shape"/>
</filter>
</defs>
</svg>
