<svg width="29" height="29" viewBox="0 0 29 29" fill="none" xmlns="http://www.w3.org/2000/svg">
<path d="M18.745 10.038C20.6015 10.0455 22.379 10.7902 23.6864 12.1082C24.9939 13.4263 25.7242 15.2097 25.7167 17.0662L25.6837 25.2328L21.0171 25.214L21.0501 17.0474C21.0526 16.4286 20.8091 15.8341 20.3733 15.3947C19.9375 14.9554 19.345 14.7071 18.7262 14.7047C18.1073 14.7022 17.5128 14.9456 17.0735 15.3814C16.6342 15.8172 16.3859 16.4097 16.3834 17.0285L16.3505 25.1951L11.6838 25.1763L11.7168 17.0097C11.7243 15.1532 12.469 13.3757 13.787 12.0683C15.1051 10.7608 16.8885 10.0305 18.745 10.038Z" fill="white" stroke="white" stroke-width="2" stroke-linecap="round" stroke-linejoin="round"/>
<path d="M7.07373 11.1575L2.4071 11.1387L2.35059 25.1386L7.01722 25.1574L7.07373 11.1575Z" fill="white" stroke="white" stroke-width="2" stroke-linecap="round" stroke-linejoin="round"/>
<path d="M4.75454 7.64822C6.04319 7.65342 7.09207 6.61297 7.09727 5.32432C7.10247 4.03567 6.06203 2.98679 4.77338 2.98159C3.48472 2.97639 2.43585 4.01683 2.43064 5.30548C2.42544 6.59414 3.46589 7.64301 4.75454 7.64822Z" fill="white" stroke="white" stroke-width="2" stroke-linecap="round" stroke-linejoin="round"/>
</svg>
