<svg width="36" height="36" viewBox="0 0 36 36" fill="none" xmlns="http://www.w3.org/2000/svg">
<g filter="url(#filter0_d_7_36)">
<path d="M23.3333 10.6666C25.4551 10.6666 27.4899 11.5095 28.9902 13.0098C30.4905 14.5101 31.3333 16.5449 31.3333 18.6666V28H26V18.6666C26 17.9594 25.719 17.2811 25.2189 16.781C24.7189 16.2809 24.0406 16 23.3333 16C22.6261 16 21.9478 16.2809 21.4477 16.781C20.9476 17.2811 20.6667 17.9594 20.6667 18.6666V28H15.3333V18.6666C15.3333 16.5449 16.1762 14.5101 17.6765 13.0098C19.1768 11.5095 21.2116 10.6666 23.3333 10.6666Z" fill="white"/>
<path d="M9.99999 12H4.66666V28H9.99999V12Z" fill="white"/>
<path d="M7.33332 7.99996C8.80608 7.99996 9.99999 6.80605 9.99999 5.33329C9.99999 3.86053 8.80608 2.66663 7.33332 2.66663C5.86056 2.66663 4.66666 3.86053 4.66666 5.33329C4.66666 6.80605 5.86056 7.99996 7.33332 7.99996Z" fill="white"/>
</g>
<defs>
<filter id="filter0_d_7_36" x="-2" y="0" width="40" height="40" filterUnits="userSpaceOnUse" color-interpolation-filters="sRGB">
<feFlood flood-opacity="0" result="BackgroundImageFix"/>
<feColorMatrix in="SourceAlpha" type="matrix" values="0 0 0 0 0 0 0 0 0 0 0 0 0 0 0 0 0 0 127 0" result="hardAlpha"/>
<feOffset dy="4"/>
<feGaussianBlur stdDeviation="2"/>
<feComposite in2="hardAlpha" operator="out"/>
<feColorMatrix type="matrix" values="0 0 0 0 0 0 0 0 0 0 0 0 0 0 0 0 0 0 0.25 0"/>
<feBlend mode="normal" in2="BackgroundImageFix" result="effect1_dropShadow_7_36"/>
<feBlend mode="normal" in="SourceGraphic" in2="effect1_dropShadow_7_36" result="shape"/>
</filter>
</defs>
</svg>
