<svg width="700" height="700" viewBox="0 0 700 700" fill="none" xmlns="http://www.w3.org/2000/svg">
<circle cx="350" cy="350" r="340" fill="white" stroke="#FF0303" stroke-width="20"/>
<path d="M279.5 643.187L50 311.687C56.7189 268.955 63.8302 246.513 82.5 209.187C119.285 199.734 141.43 198.252 183.5 201.687C350.635 230.183 452.067 397.016 360 571.187L343.5 596.187L380 648.687C341.737 651.288 319.865 650.044 279.5 643.187Z" fill="#FF0303"/>
<path d="M294 360.687C226.277 257.702 128.646 282.389 124.501 281.189C120.357 279.988 295.001 526.688 295.001 526.688C324.524 458.498 322.234 416.491 294 360.687Z" fill="white"/>
<path d="M231 119.365L275 182.865L351.5 128.365C403.527 130.405 431.203 140.183 476 167.365C519.051 200.327 537.514 225.424 560.5 281.365C565.418 300.953 575.86 316.602 581.5 355.365C586.638 380.213 586.072 395.212 587 420.365C587.162 452.343 584.427 466.285 579 490.365C570.628 525.827 563.475 544.29 547.5 575.365C592.472 532.845 611.968 502.947 636.5 438.865C653.557 371.357 653.936 334.506 640 270.365C618.956 210.528 602.636 182.312 566 140.865C521.753 100.102 494.656 83.715 443 63.8655C398.03 52.5621 372.851 48.7144 328 50.3655L231 119.365Z" fill="#FF0303"/>
</svg>
