<svg width="28" height="29" viewBox="0 0 28 29" fill="none" xmlns="http://www.w3.org/2000/svg">
<path d="M16.3333 2.33667L6.99996 2.33667C6.38112 2.33667 5.78763 2.5825 5.35004 3.02009C4.91246 3.45767 4.66663 4.05116 4.66663 4.67L4.66663 23.3367C4.66663 23.9555 4.91246 24.549 5.35004 24.9866C5.78763 25.4242 6.38112 25.67 6.99996 25.67L21 25.67C21.6188 25.67 22.2123 25.4242 22.6499 24.9866C23.0875 24.549 23.3333 23.9555 23.3333 23.3367L23.3333 9.33667L16.3333 2.33667Z" fill="white" stroke="white" stroke-width="2" stroke-linecap="round" stroke-linejoin="round"/>
<path d="M16.3333 2.33667L16.3333 9.33667L23.3333 9.33667" stroke="black" stroke-width="2" stroke-linecap="round" stroke-linejoin="round"/>
<path d="M18.6666 15.1702L9.33325 15.1702" stroke="black" stroke-width="2" stroke-linecap="round" stroke-linejoin="round"/>
<path d="M18.6666 19.8367L9.33325 19.8367" stroke="black" stroke-width="2" stroke-linecap="round" stroke-linejoin="round"/>
<path d="M11.6666 10.5034L10.4999 10.5034L9.33325 10.5034" fill="black"/>
<path d="M11.6666 10.5034L10.4999 10.5034L9.33325 10.5034" stroke="black" stroke-width="2" stroke-linecap="round" stroke-linejoin="round"/>
</svg>
