<svg width="30" height="35" viewBox="0 0 30 35" fill="none" xmlns="http://www.w3.org/2000/svg">
<g filter="url(#filter0_d_644_15)">
<path d="M17.3333 2.33337L8 2.33337C7.38116 2.33337 6.78767 2.57921 6.35009 3.01679C5.9125 3.45438 5.66667 4.04787 5.66667 4.66671L5.66667 23.3334C5.66667 23.9522 5.9125 24.5457 6.35009 24.9833C6.78767 25.4209 7.38116 25.6667 8 25.6667L22 25.6667C22.6188 25.6667 23.2123 25.4209 23.6499 24.9833C24.0875 24.5457 24.3333 23.9522 24.3333 23.3334L24.3333 9.33337L17.3333 2.33337Z" fill="white" stroke="white" stroke-width="2" stroke-linecap="round" stroke-linejoin="round"/>
<path d="M17.3333 2.33325L17.3333 9.33325L24.3333 9.33325" stroke="#0099FF" stroke-width="2" stroke-linecap="round" stroke-linejoin="round"/>
<path d="M19.6667 15.1667L10.3333 15.1667" stroke="#0099FF" stroke-width="2" stroke-linecap="round" stroke-linejoin="round"/>
<path d="M19.6667 19.8333L10.3333 19.8333" stroke="#0099FF" stroke-width="2" stroke-linecap="round" stroke-linejoin="round"/>
<path d="M12.6667 10.5L11.5 10.5L10.3333 10.5" stroke="#0099FF" stroke-width="2" stroke-linecap="round" stroke-linejoin="round"/>
</g>
<defs>
<filter id="filter0_d_644_15" x="-3" y="0" width="36" height="36" filterUnits="userSpaceOnUse" color-interpolation-filters="sRGB">
<feFlood flood-opacity="0" result="BackgroundImageFix"/>
<feColorMatrix in="SourceAlpha" type="matrix" values="0 0 0 0 0 0 0 0 0 0 0 0 0 0 0 0 0 0 127 0" result="hardAlpha"/>
<feOffset dy="4"/>
<feGaussianBlur stdDeviation="2"/>
<feComposite in2="hardAlpha" operator="out"/>
<feColorMatrix type="matrix" values="0 0 0 0 0 0 0 0 0 0 0 0 0 0 0 0 0 0 0.25 0"/>
<feBlend mode="normal" in2="BackgroundImageFix" result="effect1_dropShadow_644_15"/>
<feBlend mode="normal" in="SourceGraphic" in2="effect1_dropShadow_644_15" result="shape"/>
</filter>
</defs>
</svg>
